<?xml version="1.0" encoding="UTF-8"?>
<svg version="1.1" viewBox="0 0 354.5 225" xmlns="http://www.w3.org/2000/svg" role="img" aria-label="Nintendo Switch 2">
    <style>
      path { fill: #e60012; }
    </style>
    <path d="m135.69 2.8993h-28.232a1.186 1.186 0 0 0-1.187 1.19v179.95a1.336 1.336 0 0 0 1.336 1.337h28.083a46.789 46.789 0 0 0 46.79-46.789v-88.9a46.791 46.791 0 0 0-46.79-46.792zm6.682 118.82a18.45 18.45 0 1 1 18.449-18.45 18.451 18.451 0 0 1-18.449 18.45z"/>
    <path d="m86.677 2.8993h-39.885a46.791 46.791 0 0 0-46.792 46.79v88.9a46.789 46.789 0 0 0 46.792 46.789h39.885a1.337 1.337 0 0 0 1.339-1.337v-179.81a1.337 1.337 0 0 0-1.339-1.336zm-13.374 167.77h-26.511a32.073 32.073 0 0 1-32.077-32.078v-88.9a32.07 32.07 0 0 1 32.077-32.078h26.511zm-27.736-130.18a17.158 17.158 0 1 1-17.157 17.157 17.156 17.156 0 0 1 17.157-17.157z"/>
    <path d="m213.22 185.38v-31.369c3.241-2.664 15.5-13.207 28.462-24.353 11.655-10.026 23.3-20.087 35.176-29.849 8.952-7.359 25.948-20.866 26.49-34.1 0.636-15.566-10.4-25.656-26.889-25.656-9.825 0-21.364 5.46-28.341 11.4-7.092 6.043-15.956 13.618-15.956 13.618l-25.835-28.006c21.934-24.582 45.511-37.044 70.09-37.044 52.378-1.3 91.844 57.072 52.009 102.84a392.87 392.87 0 0 1-47.734 44.117h68.392v38.394h-135.86z"/>
</svg>
