<?xml version="1.0" encoding="UTF-8"?>
<svg version="1.1" viewBox="-2 0 187 188" xmlns="http://www.w3.org/2000/svg" role="img" aria-label="Nintendo Switch">
    <style>
      path { fill: #e60012; }
    </style>
    <path d="m135.69 2.8993h-28.232a1.186 1.186 0 0 0-1.187 1.19v179.95a1.336 1.336 0 0 0 1.336 1.337h28.083a46.789 46.789 0 0 0 46.79-46.789v-88.9a46.791 46.791 0 0 0-46.79-46.792zm6.682 118.82a18.45 18.45 0 1 1 18.449-18.45 18.451 18.451 0 0 1-18.449 18.45z"/>
    <path d="m86.677 2.8993h-39.885a46.791 46.791 0 0 0-46.792 46.79v88.9a46.789 46.789 0 0 0 46.792 46.789h39.885a1.337 1.337 0 0 0 1.339-1.337v-179.81a1.337 1.337 0 0 0-1.339-1.336zm-13.374 167.77h-26.511a32.073 32.073 0 0 1-32.077-32.078v-88.9a32.07 32.07 0 0 1 32.077-32.078h26.511zm-27.736-130.18a17.158 17.158 0 1 1-17.157 17.157 17.156 17.156 0 0 1 17.157-17.157z"/>
</svg>
